<!--?xml version="1.0" encoding="utf-8"?-->
<!-- Generator: Adobe Illustrator 18.1.1, SVG Export Plug-In . SVG Version: 6.00 Build 0)  -->

<svg version="1.1" id="_x32_" xmlns="http://www.w3.org/2000/svg" xmlns:xlink="http://www.w3.org/1999/xlink" x="0px" y="0px" viewBox="0 0 512 512" style="width: 256px; height: 256px; opacity: 1;" xml:space="preserve">
<style type="text/css">
	.st0{fill:#4B4B4B;}
</style>
<g>
	<path class="st0" d="M87.819,455.65c-11.58,0-21,9.42-21,21c0,11.644,9.42,21.072,21,21.072c11.572,0,20.55-6.232,24.71-19.667
		c1.333-4.152,3.116-12.608,4.304-20.775c-7.572-2.674-14.92-5.935-21.891-9.572C93.16,453.795,89.898,455.65,87.819,455.65z" style="fill: rgb(190, 40, 119);"></path>
	<path class="st0" d="M422.624,455.65c-2.08,0-5.348-1.855-7.124-7.942c-6.978,3.638-14.326,6.898-21.892,9.572
		c1.261,8.167,3.044,16.623,4.305,20.775c4.152,13.435,13.13,19.667,24.71,19.667c11.644,0,21.072-9.428,21.072-21.072
		C443.696,465.07,434.268,455.65,422.624,455.65z" style="fill: rgb(190, 40, 119);"></path>
	<path class="st0" d="M486.065,240.86H31.319v-42.05c0-25.247,7.377-49.899,21.036-71.072l4.398,3.34l11.768-13.761l-23.5-17.986
		l-9.928,15.29l4.181,3.174c-15.812,24.05-24.341,52.188-24.341,81.015v44.58C6.131,247.534,0,256.419,0,266.795v14.884
		c0.008,6.232,1.805,12.493,5.993,17.572c1.913,2.312,4.399,4.261,7.21,5.703c4.42,86.224,75.71,154.76,163.029,154.768h159.536
		c87.312-0.008,158.594-68.529,163.022-154.739c4.37-2.232,7.797-5.768,9.92-9.739c2.268-4.218,3.283-8.87,3.29-13.565v-14.884
		C512,252.469,500.391,240.86,486.065,240.86z M435.464,396.171c-25.55,25.53-60.725,41.283-99.696,41.29H176.232
		c-38.972-0.008-74.145-15.761-99.696-41.29c-24.71-24.724-40.123-58.507-41.101-95.985h441.13
		C475.587,337.665,460.174,371.447,435.464,396.171z M489.739,281.679c0.008,1.934-0.602,3.08-0.855,3.347l-0.232,0.204
		l-0.768,0.116h-0.76h-10.37H35.246h-11.13l-0.768-0.116l-0.471-0.566c-0.283-0.508-0.623-1.551-0.616-2.985v-14.884
		c0.008-2.036,1.638-3.666,3.674-3.674h460.13c2.036,0.007,3.666,1.638,3.674,3.674V281.679z" style="fill: rgb(190, 40, 119);"></path>
	<path class="st0" d="M73.616,330.07c10.239,30.768,32.783,55.898,61.804,69.572c3.703,1.747,8.123,0.16,9.87-3.55
		c1.746-3.703,0.16-8.123-3.55-9.87v-0.006c-25.355-11.935-45.116-33.972-54.037-60.826c-1.297-3.891-5.5-5.993-9.384-4.703
		C74.428,321.983,72.326,326.186,73.616,330.07z" style="fill: rgb(190, 40, 119);"></path>
	<path class="st0" d="M251.514,102.034c1.189-0.065,2.334-0.587,3.138-1.471c0.79-0.892,1.21-2.08,1.159-3.261
		c-0.073-1.189-0.601-2.326-1.486-3.13c-0.884-0.804-2.072-1.217-3.254-1.159c-1.188,0.058-2.34,0.594-3.138,1.486
		c-0.79,0.87-1.218,2.065-1.145,3.26c0.05,1.181,0.594,2.319,1.478,3.116C249.145,101.679,250.333,102.099,251.514,102.034z" style="fill: rgb(190, 40, 119);"></path>
	<path class="st0" d="M164.232,65.621c1.188-0.065,2.319-0.609,3.123-1.493c0.804-0.877,1.218-2.065,1.166-3.246
		c-0.058-1.188-0.601-2.334-1.478-3.138c-0.891-0.789-2.086-1.224-3.268-1.152c-1.189,0.066-2.334,0.594-3.138,1.478
		c-0.797,0.884-1.224,2.065-1.152,3.26c0.05,1.189,0.601,2.334,1.478,3.13C161.848,65.252,163.044,65.672,164.232,65.621z" style="fill: rgb(190, 40, 119);"></path>
	<path class="st0" d="M227.724,92.592c2.312,0.964,4.964-0.123,5.92-2.427c0.957-2.297-0.123-4.949-2.427-5.913
		c-2.312-0.964-4.956,0.123-5.913,2.435C224.341,88.983,225.42,91.635,227.724,92.592z" style="fill: rgb(190, 40, 119);"></path>
	<path class="st0" d="M205.913,83.483c2.297,0.964,4.949-0.123,5.906-2.442c0.957-2.297-0.123-4.942-2.434-5.898
		c-2.298-0.956-4.949,0.131-5.906,2.427C202.507,79.867,203.602,82.527,205.913,83.483z" style="fill: rgb(190, 40, 119);"></path>
	<path class="st0" d="M184.08,74.375c2.305,0.971,4.957-0.116,5.921-2.42c0.956-2.305-0.131-4.957-2.428-5.927
		c-2.311-0.95-4.957,0.13-5.92,2.434C180.688,70.773,181.79,73.425,184.08,74.375z" style="fill: rgb(190, 40, 119);"></path>
	<path class="st0" d="M149.449,74.447c0.065,1.189,0.609,2.319,1.486,3.123c0.884,0.797,2.065,1.225,3.261,1.167
		c1.195-0.073,2.319-0.609,3.123-1.479c0.804-0.891,1.224-2.087,1.166-3.275c-0.058-1.182-0.594-2.326-1.486-3.123
		c-0.884-0.804-2.065-1.232-3.254-1.167c-1.196,0.066-2.326,0.609-3.138,1.493C149.819,72.056,149.391,73.259,149.449,74.447z" style="fill: rgb(190, 40, 119);"></path>
	<path class="st0" d="M170.863,90.389c2.115,1.34,4.905,0.71,6.253-1.384c1.341-2.102,0.725-4.898-1.376-6.239
		c-2.101-1.348-4.899-0.732-6.232,1.37C168.152,86.245,168.775,89.034,170.863,90.389z" style="fill: rgb(190, 40, 119);"></path>
	<path class="st0" d="M208.182,108.853c-1.356,2.116-0.739,4.899,1.369,6.232c2.088,1.355,4.884,0.739,6.24-1.362
		c1.347-2.116,0.732-4.899-1.377-6.246C212.312,106.135,209.514,106.745,208.182,108.853z" style="fill: rgb(190, 40, 119);"></path>
	<path class="st0" d="M188.833,96.491c-1.348,2.109-0.724,4.899,1.377,6.246c2.101,1.355,4.898,0.732,6.239-1.376
		c1.355-2.094,0.732-4.899-1.37-6.225C192.971,93.766,190.189,94.404,188.833,96.491z" style="fill: rgb(190, 40, 119);"></path>
	<path class="st0" d="M227.971,120.607c-0.798,0.898-1.232,2.072-1.167,3.261c0.051,1.188,0.594,2.326,1.478,3.123
		c0.892,0.797,2.072,1.232,3.261,1.166s2.326-0.594,3.123-1.486c0.804-0.87,1.218-2.065,1.166-3.26
		c-0.065-1.182-0.601-2.312-1.486-3.123c-0.87-0.798-2.065-1.218-3.26-1.16C229.898,119.186,228.768,119.723,227.971,120.607z" style="fill: rgb(190, 40, 119);"></path>
	<path class="st0" d="M130.55,97.404c-0.797,0.884-1.217,2.073-1.159,3.26c0.066,1.189,0.594,2.334,1.493,3.123
		c0.876,0.797,2.065,1.232,3.26,1.168c1.174-0.051,2.319-0.609,3.123-1.479c0.79-0.884,1.21-2.086,1.152-3.26
		c-0.058-1.189-0.602-2.334-1.478-3.13c-0.885-0.797-2.072-1.218-3.261-1.159C132.5,95.99,131.348,96.519,130.55,97.404z" style="fill: rgb(190, 40, 119);"></path>
	<path class="st0" d="M151.181,122.694c1.978-1.529,2.326-4.384,0.797-6.341c-1.528-1.978-4.362-2.334-6.341-0.804
		c-1.978,1.529-2.319,4.362-0.797,6.348C146.362,123.868,149.203,124.222,151.181,122.694z" style="fill: rgb(190, 40, 119);"></path>
	<path class="st0" d="M165.681,141.368c1.978-1.544,2.334-4.37,0.812-6.333c-1.551-1.978-4.376-2.348-6.348-0.804
		c-1.978,1.536-2.333,4.376-0.804,6.333C160.877,142.534,163.718,142.904,165.681,141.368z" style="fill: rgb(190, 40, 119);"></path>
	<path class="st0" d="M174.645,152.897c-1.971,1.543-2.34,4.376-0.797,6.348c1.529,1.978,4.362,2.333,6.34,0.797
		c1.978-1.522,2.326-4.37,0.797-6.333C179.449,151.737,176.616,151.375,174.645,152.897z" style="fill: rgb(190, 40, 119);"></path>
	<path class="st0" d="M191.696,170.643c-1.196,0.05-2.334,0.594-3.131,1.486c-0.804,0.87-1.218,2.072-1.166,3.246
		c0.065,1.181,0.601,2.34,1.5,3.123c0.87,0.812,2.044,1.232,3.24,1.166c1.196-0.058,2.333-0.594,3.13-1.486
		c0.797-0.876,1.225-2.065,1.16-3.246c-0.058-1.181-0.602-2.34-1.485-3.137C194.058,170.998,192.884,170.578,191.696,170.643z" style="fill: rgb(190, 40, 119);"></path>
	<path class="st0" d="M148.45,87.107c-0.058-1.188-0.587-2.334-1.479-3.138c-0.884-0.797-2.079-1.217-3.26-1.159
		c-1.182,0.058-2.326,0.608-3.131,1.486c-0.797,0.891-1.21,2.072-1.159,3.26c0.072,1.189,0.601,2.326,1.492,3.123
		c0.87,0.804,2.066,1.218,3.261,1.167c1.188-0.065,2.319-0.594,3.116-1.479C148.087,89.469,148.514,88.288,148.45,87.107z" style="fill: rgb(190, 40, 119);"></path>
	<path class="st0" d="M174.573,115.143c-1.674,1.848-1.537,4.703,0.304,6.384c1.855,1.673,4.703,1.55,6.384-0.312
		c1.681-1.841,1.551-4.696-0.304-6.377C179.109,113.15,176.246,113.303,174.573,115.143z" style="fill: rgb(190, 40, 119);"></path>
	<path class="st0" d="M191.565,130.563c-1.681,1.848-1.551,4.718,0.304,6.392c1.848,1.673,4.71,1.536,6.377-0.305
		c1.696-1.848,1.551-4.703-0.304-6.391C196.095,128.577,193.239,128.723,191.565,130.563z" style="fill: rgb(190, 40, 119);"></path>
	<path class="st0" d="M164.276,105.795c1.674-1.862,1.544-4.71-0.304-6.384c-1.848-1.681-4.71-1.529-6.399,0.297
		c-1.673,1.855-1.528,4.71,0.319,6.399C159.739,107.781,162.594,107.636,164.276,105.795z" style="fill: rgb(190, 40, 119);"></path>
	<path class="st0" d="M211.674,144.52c-1.196,0.073-2.326,0.594-3.123,1.486c-0.812,0.876-1.225,2.065-1.174,3.26
		c0.065,1.181,0.594,2.326,1.486,3.116c0.876,0.811,2.065,1.232,3.26,1.174c1.189-0.065,2.326-0.602,3.123-1.5
		c0.797-0.87,1.224-2.058,1.16-3.246c-0.051-1.195-0.594-2.333-1.479-3.123C214.051,144.889,212.862,144.469,211.674,144.52z" style="fill: rgb(190, 40, 119);"></path>
	<path class="st0" d="M99.348,80.52l4.978,3.478l35.92-46.956L120.145,19.15l-3.058-2.319c-2.638-2.03-5.993-2.892-9.268-2.434
		c-3.304,0.456-6.276,2.217-8.254,4.876c0,0-9.594,10.145-13.66,15.79c-34.862,48.282-37.16,58.493-37.16,58.493l24.066,18.406
		L99.348,80.52z" style="fill: rgb(190, 40, 119);"></path>
	<path class="st0" d="M113.906,90.657c2.731,1.884,6.442,1.282,8.442-1.326l27.543-36.014c1.971-2.58,1.63-6.246-0.812-8.42
		l-3.906-3.471l-35.449,46.326L113.906,90.657z" style="fill: rgb(190, 40, 119);"></path>
</g>
</svg>
